<svg xmlns="http://www.w3.org/2000/svg" version="1.1" xmlns:xlink="http://www.w3.org/1999/xlink" xmlns:svgjs="http://svgjs.com/svgjs" width="512" height="512" x="0" y="0" viewBox="0 0 152 152" style="enable-background:new 0 0 512 512" xml:space="preserve" class=""><g><linearGradient id="linear-gradient" gradientUnits="userSpaceOnUse" x1="61.9" x2="81.7" y1="51.97" y2="71.78"><stop stop-opacity="1" stop-color="#35185a" offset="0"></stop><stop stop-opacity="1" stop-color="#35185a" offset="1"></stop></linearGradient><linearGradient id="linear-gradient-2" x1="68.88" x2="144.24" xlink:href="#linear-gradient" y1="77.38" y2="152.74"></linearGradient><g id="Layer_2" data-name="Layer 2"><g id="Color"><g id="_18.R" data-name="18.R"><rect id="Background" fill="#35185a" height="152" rx="12" width="152" data-original="#2196f3" class=""></rect><g id="Shadow"><path d="m75.23 72.87h-12.23v-22h12.2c3.63 0 6.37 1 8.24 2.94s2.8 4.68 2.8 8.13-.89 6.11-2.74 8.06-4.61 2.87-8.27 2.87z" fill="url(#linear-gradient)" data-original="url(#linear-gradient)" class=""></path><path d="m152 96.75v43.25a12 12 0 0 1 -12 12h-60.25l-36-36h19.25v-28.3h10.47l14.12 28.3h20.66v-.83l-16.7-32.3a24 24 0 0 0 10.58-8.87q3.38-5.49 3.38-13.83 0-8.86-4.76-14.64z" fill="url(#linear-gradient-2)" data-original="url(#linear-gradient-2)"></path></g><path id="Icon" d="m73.47 87.7h-10.47v28.3h-19.25v-80h31.48q14.24 0 22.25 6.31t8 17.84q0 8.34-3.38 13.83a24 24 0 0 1 -10.58 8.89l16.7 32.3v.83h-20.63zm-10.47-14.83h12.2q5.49 0 8.27-2.89t2.77-8.07q0-5.17-2.8-8.13c-1.87-2-4.61-2.94-8.24-2.94h-12.2z" fill="#ffffff" data-original="#ffffff" class=""></path></g></g></g></g></svg>